<?xml version="1.0" encoding="iso-8859-1"?>
<!-- Generator: Adobe Illustrator 16.0.0, SVG Export Plug-In . SVG Version: 6.00 Build 0)  -->
<!DOCTYPE svg PUBLIC "-//W3C//DTD SVG 1.1//EN" "http://www.w3.org/Graphics/SVG/1.1/DTD/svg11.dtd">
<svg xmlns="http://www.w3.org/2000/svg" xmlns:xlink="http://www.w3.org/1999/xlink" version="1.1" id="Capa_1" x="0px" y="0px" width="512px" height="512px" viewBox="0 0 910.469 910.469" style="enable-background:new 0 0 910.469 910.469;" xml:space="preserve">
<g>
	<g>
		<path d="M158.534,362.5c-36,87.2-71.6,175.301-85.3,215.401c-31.6,92.6-76.8,343.5,155.9,332.199    c117.9-5.699,119.2-81.6,99.8-170.9c-14.4-6.299-27.601-15.398-39-26.799c-24.3-24.301-37.7-56.6-37.7-91c0-4.6,0.5-9.9,1.4-16    c-27.6-36.9-49.7-76.701-65.7-118.701C172.834,447.3,163.034,405.7,158.534,362.5z" fill="#FFFFFF"/>
		<path d="M298.734,471.4c11.2-23.901,23.7-46.701,36.8-65.1c7.5-10.7,18.9-32.9,29.9-78c8-32.5,14.7-72.5,20.1-118.9    c9.101-78.4,12.2-156.5,13.3-200.5c-74.6,19.9-198,82-207.5,274.9c-0.4,7.8-0.6,15.9-0.6,24.2c0,105.1,32.1,188.301,73.9,252.199    C272.833,532.699,284.734,501.1,298.734,471.4z M302.134,238c22.1,0,40,17.9,40,40s-17.9,40-40,40c-22.101,0-40-17.9-40-40    S280.034,238,302.134,238z" fill="#FFFFFF"/>
		<path d="M601.734,681.199c9.6-11.6,16.3-25.699,19.4-40.398c3.199-15.102,1.8-29.301-1.601-44.201    c-0.7-3.199-1.6-6.699-2.5-10.299c-11.8-45-39.1-115.4-70.5-159.801c-58.399-82.699-68.3-344-69.899-425    c-7.2-1-14.301-1.5-21.301-1.5c-7,0-14,0.5-21.2,1.5c-1.601,80.9-11.5,342.3-69.9,425c-31.4,44.401-58.7,114.801-70.5,159.801    c-0.9,3.6-1.8,7-2.5,10.299c-3.4,14.9-4.8,29.1-1.6,44.201c3.1,14.799,9.8,28.799,19.399,40.398    C326.634,702.4,353.634,715,381.134,715c3.699,0,7.3-0.199,10.899-0.699c8.101-0.9,15.9-2.9,23.2-5.801    c8.4-3.301,16.2-7.801,23.2-13.301v-14.5c-2-1-3.9-2.199-5.8-3.398c-4.7-3.201-9.101-7.201-13.101-11.701    c-14.6-16.4-24.1-39.4-24.2-52.699c0-0.1,0-0.201,0-0.301c0-22.4,26.9-40.5,60-40.5c0.101,0,0.101,0,0.2,0c0,0,0.101,0,0.2,0    c33.1,0,60,18.1,60,40.5c0,0.1,0,0.201,0,0.301c-0.1,13.4-9.6,36.299-24.2,52.699c-4,4.5-8.399,8.5-13.1,11.701    c-1.9,1.299-3.8,2.398-5.8,3.398v14.5c7,5.5,14.8,10,23.199,13.301c7.301,2.9,15.101,4.801,23.301,5.801    c3.6,0.398,7.199,0.699,10.899,0.699C557.135,715,584.135,702.4,601.734,681.199z M325.833,611c0-8.5,6.9-15.5,15.5-15.5    c8.5,0,15.5,6.9,15.5,15.5c0,8.5-6.899,15.5-15.5,15.5C332.734,626.5,325.833,619.5,325.833,611z M360.234,677.5    c-8.5,0-15.5-6.9-15.5-15.5c0-8.5,6.9-15.5,15.5-15.5c8.5,0,15.5,6.9,15.5,15.5C375.734,670.5,368.833,677.5,360.234,677.5z     M550.234,677.5c-8.5,0-15.5-6.9-15.5-15.5c0-8.5,6.9-15.5,15.5-15.5c8.5,0,15.5,6.9,15.5,15.5    C565.734,670.5,558.734,677.5,550.234,677.5z M569.234,626.5c-8.5,0-15.5-6.9-15.5-15.5c0-8.5,6.9-15.5,15.5-15.5    c8.5,0,15.5,6.9,15.5,15.5C584.734,619.5,577.734,626.5,569.234,626.5z" fill="#FFFFFF"/>
		<path d="M681.334,910c232.7,11.301,187.5-239.5,155.9-332.199c-13.7-40-49.3-128.201-85.3-215.401c-4.5,43.1-14.3,84.7-29.4,124.2    c-16,41.9-38.1,81.801-65.7,118.701c0.9,6.1,1.4,11.398,1.4,16c0,34.398-13.4,66.699-37.7,91    c-11.399,11.398-24.6,20.398-39,26.799C562.135,828.4,563.534,904.301,681.334,910z" fill="#FFFFFF"/>
		<path d="M575.034,406.3c13.101,18.5,25.601,41.199,36.8,65.1c13.9,29.699,25.801,61.299,34.101,88.699    c41.8-63.9,73.899-147.2,73.899-252.2c0-8.3-0.199-16.3-0.6-24.2c-9.6-192.9-133-255-207.6-274.9c1,44,4.1,122.1,13.3,200.5    c5.399,46.4,12.2,86.4,20.1,118.9C556.135,373.4,567.435,395.6,575.034,406.3z M608.435,238c22.1,0,40,17.9,40,40s-17.9,40-40,40    c-22.101,0-40-17.9-40-40S586.334,238,608.435,238z" fill="#FFFFFF"/>
		<path d="M459.834,729.4c-1.5-1-2.6-2-4.6-3.1c-1.5,1.1-3,2.1-4.6,3.1c-26.301,17.1-58.7,23.9-89.7,19.1    c22.2,20.5,56.1,33.699,94.1,33.699c0.101,0,0.101,0,0.2,0c0,0,0.1,0,0.201,0c38,0,71.899-13.1,94.1-33.699    C518.534,753.301,486.135,746.4,459.834,729.4z" fill="#FFFFFF"/>
	</g>
</g>
<g>
</g>
<g>
</g>
<g>
</g>
<g>
</g>
<g>
</g>
<g>
</g>
<g>
</g>
<g>
</g>
<g>
</g>
<g>
</g>
<g>
</g>
<g>
</g>
<g>
</g>
<g>
</g>
<g>
</g>
</svg>
