<?xml version="1.0" encoding="iso-8859-1"?>
<!-- Generator: Adobe Illustrator 16.0.0, SVG Export Plug-In . SVG Version: 6.00 Build 0)  -->
<!DOCTYPE svg PUBLIC "-//W3C//DTD SVG 1.1//EN" "http://www.w3.org/Graphics/SVG/1.1/DTD/svg11.dtd">
<svg xmlns="http://www.w3.org/2000/svg" xmlns:xlink="http://www.w3.org/1999/xlink" version="1.1" id="Capa_1" x="0px" y="0px" width="512px" height="512px" viewBox="0 0 940.505 940.505" style="enable-background:new 0 0 940.505 940.505;" xml:space="preserve">
<g>
	<g>
		<path d="M97.36,306.965c21.6-7.9,44.8-11.9,63.9-13.9c13.9-42.7,32.4-80.2,55.2-111.8c14.7-20.3,31.2-38.3,49.4-53.8    c-37.3-20.1-97.8-42.7-163.3-27.6c-75.7,17.4-96.6,88.6-102.4,129.5c-1.7,11.7,10.4,20.7,21.2,15.6c45-21.1,83-10.9,83-10.9    c-10.1,14.1-19.3,35.3-26.2,53.3C73.661,299.565,85.36,311.365,97.36,306.965z" fill="#FFFFFF"/>
		<path d="M392.861,623.665c0,13.8,9.199,26.2,23.899,35.2c13.9,8,32.8,13.5,53.7,13.5c20,0,39.6-5.5,53.6-13.5    c14.7-9,23.801-21.4,23.801-35.2c0-26.8-34.4-48.7-77.401-48.7C427.661,574.965,392.861,596.865,392.861,623.665z" fill="#FFFFFF"/>
		<path d="M919.161,245.165c10.7,5,22.8-3.9,21.2-15.6c-5.801-40.9-26.7-112-102.4-129.5c-65.5-15.1-125.9,7.5-163.3,27.6    c18.2,15.5,34.8,33.4,49.399,53.8c22.801,31.5,41.301,69,55.2,111.8c19.101,2,42.3,5.9,63.9,13.9c12.1,4.4,23.8-7.4,19.2-19.4    c-6.801-18.1-16.101-39.2-26.2-53.3C836.161,234.265,874.161,224.065,919.161,245.165z" fill="#FFFFFF"/>
		<path d="M821.161,750.365c8.399,0,16.2-7.1,15-16.9c-8.5-67.8-31.2-218.1-83.7-408.2c-3.3-12-13.2-40.8-14.5-44.2    c-15.4-39.9-37.1-77.8-66.8-108.8c-30.101-31.4-67.9-54.1-109.8-65.5c-24.4-6.7-49.101-8.4-74.2-10c0,0-0.2,284.5,68.2,397.3    c44.899,74,59.199,136.8,39.199,172.399c-8.6,15.4-23.6,25.301-39.699,31.7c-21.301,8.5-49.5,12.601-84.601,12.601    c-35.1,0-63.3-4.101-84.6-12.601c-14.601-5.8-31.5-17.2-39.7-31.7c-20-35.6-5.8-98.399,39.2-172.399    c68.5-112.7,68.3-397.2,68.3-397.2c-25.2,1.6-49.8,3.3-74.2,10c-42,11.5-79.8,34.1-109.8,65.5c-29.7,31-51.3,68.9-66.8,108.8    c-1.3,3.3-11.2,32.2-14.5,44.2c-52.5,190.1-75.2,340.3-83.7,408.2c-1.2,9.8,6.6,16.899,15,16.899c3.4,0,6.9-1.199,9.9-3.899    l39.8-35.7c0,0-13,59-0.7,122.4c1.5,7.699,8.1,12.199,14.8,12.199c3.9,0,7.9-1.5,10.9-4.899c28.7-31.2,85-91.5,129.899-134.2    c-1.699,2.1,25.9,20.7,27.9,21.8c28.8,16.4,68.4,24.7,118.3,24.7h0.101l0,0c49.8,0,89.3-8.4,118.1-24.7    c10.3-5.8,19.9-13.2,27.9-21.8c44.899,42.7,101.199,103.1,129.899,134.3c3.101,3.3,7,4.9,10.9,4.9c6.8,0,13.399-4.601,14.8-12.2    c12.5-63.5-0.5-122.6-0.5-122.6l39.8,35.699C814.261,749.165,817.761,750.365,821.161,750.365z M297.46,290.865    c0-17.7,14.3-32,32-32s32,14.3,32,32s-14.3,32-32,32S297.46,308.565,297.46,290.865z M611.161,322.865c-17.7,0-32-14.3-32-32    s14.3-32,32-32s32,14.3,32,32S628.761,322.865,611.161,322.865z" fill="#FFFFFF"/>
	</g>
</g>
<g>
</g>
<g>
</g>
<g>
</g>
<g>
</g>
<g>
</g>
<g>
</g>
<g>
</g>
<g>
</g>
<g>
</g>
<g>
</g>
<g>
</g>
<g>
</g>
<g>
</g>
<g>
</g>
<g>
</g>
</svg>
