<?xml version="1.0" encoding="iso-8859-1"?>
<!-- Generator: Adobe Illustrator 16.0.0, SVG Export Plug-In . SVG Version: 6.00 Build 0)  -->
<!DOCTYPE svg PUBLIC "-//W3C//DTD SVG 1.1//EN" "http://www.w3.org/Graphics/SVG/1.1/DTD/svg11.dtd">
<svg xmlns="http://www.w3.org/2000/svg" xmlns:xlink="http://www.w3.org/1999/xlink" version="1.1" id="Capa_1" x="0px" y="0px" width="512px" height="512px" viewBox="0 0 898.023 898.023" style="enable-background:new 0 0 898.023 898.023;" xml:space="preserve">
<g>
	<g>
		<path d="M701.412,150.312c28.899,43.3,49.3,96.4,60.8,158c5.2,28.2,10.5,56.8,15.1,85.4c153,14.399,147.3-177.5,56.7-269.3    c-60.2-61-140.8-56.4-195.5-43.1C662.512,100.612,683.611,123.612,701.412,150.312z" fill="#FFFFFF"/>
		<path d="M120.712,393.812c4.7-28.6,9.9-57.3,15.1-85.4c11.5-61.6,31.9-114.8,60.8-158c17.8-26.7,38.9-49.8,62.9-68.9    c-54.8-13.4-135.3-17.9-195.5,43C-26.588,216.212-32.288,408.111,120.712,393.812z" fill="#FFFFFF"/>
		<path d="M157.212,387.111c-41.9,249.601-39.9,457.4,291.8,457.4s333.7-207.7,291.7-457.4c-4-23.8-8.4-47.899-12.9-72.3    c-22.3-119.7-76.3-184.6-131-220c-58-37.5-116.7-41.3-138.7-41.3c-6.1,0-12.199,0-18.199,0c-22,0-80.7,3.7-138.7,41.2    c-54.6,35.3-108.7,100.4-131,220.1C165.612,339.212,161.212,363.312,157.212,387.111z M599.312,262.812    c21.8,0,39.4,17.7,39.4,39.4c0,21.8-17.7,39.399-39.4,39.399s-39.399-17.7-39.399-39.399    C559.912,280.412,577.512,262.812,599.312,262.812z M364.212,433.512h169.6c17,0,30,14.7,27.9,31.6    c-10.9,88.101-66.7,121.2-95.7,132.7v24.8c0,37,30.5,67.101,67.5,67.101s67.5-30.101,67.5-67.101v-20.199    c0-9.7,7.8-17.5,17.5-17.5s17.5,7.8,17.5,17.5v20.199c0,56.301-45.9,102.101-102.2,102.101c-35.2,0-66.3-17.9-84.7-45    c-18.399,27.1-49.6,45-84.8,45c-56.3,0-102.3-45.8-102.3-102.101v-20.199c0-9.7,7.8-17.5,17.5-17.5s17.5,7.8,17.5,17.5v20.199    c0,37,30,67.101,67,67.101s67-30.101,67-67.101v-24.8c-28-11.5-84.3-44.6-95.2-132.7    C333.712,448.212,347.212,433.512,364.212,433.512z M299.312,262.812c21.8,0,39.4,17.7,39.4,39.4c0,21.8-17.7,39.399-39.4,39.399    c-21.8,0-39.399-17.7-39.399-39.399C259.912,280.412,277.512,262.812,299.312,262.812z" fill="#FFFFFF"/>
	</g>
</g>
<g>
</g>
<g>
</g>
<g>
</g>
<g>
</g>
<g>
</g>
<g>
</g>
<g>
</g>
<g>
</g>
<g>
</g>
<g>
</g>
<g>
</g>
<g>
</g>
<g>
</g>
<g>
</g>
<g>
</g>
</svg>
